<svg xmlns="http://www.w3.org/2000/svg" xmlns:svg="http://www.w3.org/2000/svg" id="svg2" width="320" height="90" version="1.1" viewBox="20 30 320 90"><defs id="defs3"><marker id="Arrow1Mend" orient="auto" refX="0" refY="0" style="overflow:visible"><path id="path10600" d="M 0.0,0.0 L 5.0,-5.0 L -12.5,0.0 L 5.0,5.0 L 0.0,0.0 z" style="fill-rule:evenodd;stroke:#000;stroke-width:1pt;marker-start:none" transform="scale(0.4) rotate(180) translate(10,0)"/></marker><style id="style5" type="text/css">.arrow,.dashed,rect.box{stroke:#000;stroke-width:.5px;stroke-opacity:1}rect.box{fill-rule:evenodd;stroke-linecap:round;stroke-linejoin:round;fill:#e0e0e0}.arrow,.dashed{fill:none}.arrow{stroke-linecap:butt;stroke-linejoin:miter;marker-end:url(#Arrow1Mend)}.dashed{stroke-linecap:round;stroke-linejoin:round;stroke-dasharray:2,3}text{font-style:normal;font-variant:normal;font-weight:400;font-stretch:normal;text-align:start;text-anchor:start;fill-opacity:1}text.box,text.level{font-size:7px;font-family:Fontin Sans}text.level{font-size:10px;font-style:italic}text.interface{font-size:15px;font-family:Fontin Sans;font-weight:700;fill:#fff}rect.interface,text{fill:#000;stroke:none}rect.lower,rect.upper{fill-opacity:.3;stroke-width:1px;stroke-linecap:round;stroke-linejoin:round;stroke-opacity:1}rect.upper{fill:#cfc;stroke:#80c080}rect.lower{fill:#6cf;stroke:#4080c0}</style></defs><g id="layer1" transform="translate(150,0)"><g transform="translate(-75,100)"><rect width="70" height="10" x="-35" y="0" class="box" rx="2" ry="2"/><text x="0" y="7.2" class="box" xml:space="preserve" style="text-anchor:middle"><tspan style="font-weight:700">2×</tspan> <tspan style="font-variant:small-caps">Keccak</tspan>-<tspan style="font-style:italic">f</tspan>[1600]</text></g><g transform="translate(0,100)"><rect width="70" height="10" x="-35" y="0" class="box" rx="2" ry="2"/><text x="0" y="7.2" class="box" xml:space="preserve" style="text-anchor:middle"><tspan style="font-weight:700">4×</tspan> <tspan style="font-variant:small-caps">Keccak</tspan>-<tspan style="font-style:italic">p</tspan>[1600, 12]</text></g><g transform="translate(75,100)"><rect width="70" height="10" x="-35" y="0" class="box" rx="2" ry="2"/><text x="0" y="7.2" class="box" xml:space="preserve" style="text-anchor:middle"><tspan style="font-weight:700">8×</tspan> <tspan style="font-variant:small-caps">Keccak</tspan>-<tspan style="font-style:italic">f</tspan>[1600]</text></g><path d="M -120,90 180,90" class="dashed"/><g><text x="0" y="8.5" class="level" xml:space="preserve" style="text-anchor:start" transform="translate(120,100)">Primitive</text></g><path d="M -42,80 -80,98" class="arrow"/><path d="M -40,80 -5,98" class="arrow"/><path d="M -38,80 70,98" class="arrow"/><g transform="translate(-40,70)"><rect width="60" height="10" x="-30" y="0" class="box" rx="2" ry="2"/><text x="0" y="7.2" class="box" xml:space="preserve" style="text-anchor:middle"><tspan style="font-weight:700">Parallel</tspan> Sponge</text></g><g><text x="0" y="8.5" class="level" xml:space="preserve" style="text-anchor:start" transform="translate(120,70)">Construction</text></g><path d="M -60,50 -45,68" class="arrow"/><g transform="translate(-60,40)"><rect width="60" height="10" x="-30" y="0" class="box" rx="2" ry="2"/><text x="0" y="7.2" class="box" xml:space="preserve" style="text-anchor:middle">Tree Hashing</text></g><path d="M 60,50 10,98" class="arrow"/><g transform="translate(60,40)"><rect width="100" height="10" x="-50" y="0" class="box" rx="2" ry="2"/><text x="0" y="7.2" class="box" xml:space="preserve" style="text-anchor:middle">Authenticated Encryption</text></g><g><text x="0" y="8.5" class="level" xml:space="preserve" style="text-anchor:start" transform="translate(120,40)">Mode</text></g><rect width="310" height="50" x="-125" y="35" class="upper" rx="10" ry="10"/><rect width="310" height="20" x="-125" y="95" class="lower" rx="10" ry="10"/><g transform="translate(110, 85)"><rect width="50" height="16" x="-25" y="-3" class="interface"/><text x="0" y="10" class="interface" xml:space="preserve" style="text-anchor:middle">PlSnP</text></g></g></svg>